<svg xmlns="http://www.w3.org/2000/svg" xmlns:xlink="http://www.w3.org/1999/xlink" width="5312" zoomAndPan="magnify" viewBox="0 0 3984 2331.749891" height="3109" preserveAspectRatio="xMidYMid meet" version="1.2"><defs><clipPath id="f20d7717e0"><path d="M 0.214844 0 L 3983.785156 0 L 3983.785156 2331.5 L 0.214844 2331.5 Z M 0.214844 0 "/></clipPath></defs><g id="a29bd17c0b"><g clip-rule="nonzero" clip-path="url(#f20d7717e0)"><path style=" stroke:none;fill-rule:nonzero;fill:#ffffff;fill-opacity:1;" d="M 0.214844 0 L 3983.785156 0 L 3983.785156 2331.5 L 0.214844 2331.5 Z M 0.214844 0 "/><path style=" stroke:none;fill-rule:nonzero;fill:#d9d9d9;fill-opacity:1;" d="M 0.214844 0 L 3983.785156 0 L 3983.785156 2331.5 L 0.214844 2331.5 Z M 0.214844 0 "/></g><path style=" stroke:none;fill-rule:nonzero;fill:#ffffff;fill-opacity:1;" d="M 1523.058594 1682.867188 C 1522.222656 1682.867188 1521.378906 1682.796875 1520.539062 1682.652344 L 1400.03125 1661.992188 C 1392.867188 1660.765625 1387.632812 1654.558594 1387.632812 1647.289062 L 1387.632812 1570.914062 C 1387.632812 1566.53125 1389.5625 1562.367188 1392.90625 1559.535156 C 1396.25 1556.699219 1400.671875 1555.476562 1404.996094 1556.199219 L 1525.507812 1576.234375 C 1532.703125 1577.429688 1537.976562 1583.65625 1537.976562 1590.949219 L 1537.976562 1667.949219 C 1537.976562 1672.347656 1536.039062 1676.519531 1532.675781 1679.351562 C 1529.964844 1681.636719 1526.550781 1682.867188 1523.058594 1682.867188 Z M 1417.46875 1634.714844 L 1508.144531 1650.257812 L 1508.144531 1603.589844 L 1417.46875 1588.515625 Z M 1417.46875 1634.714844 "/><path style=" stroke:none;fill-rule:nonzero;fill:#ffffff;fill-opacity:1;" d="M 1411.378906 1029.710938 C 1414.195312 1029.710938 1417.042969 1028.914062 1419.570312 1027.25 L 1445.574219 1010.125 C 1452.453125 1005.59375 1454.355469 996.339844 1449.824219 989.460938 C 1445.292969 982.582031 1436.042969 980.679688 1429.160156 985.210938 L 1403.160156 1002.335938 C 1396.28125 1006.867188 1394.375 1016.117188 1398.910156 1023 C 1401.777344 1027.351562 1406.53125 1029.710938 1411.378906 1029.710938 Z M 1411.378906 1029.710938 "/><path style=" stroke:none;fill-rule:nonzero;fill:#ffffff;fill-opacity:1;" d="M 2894.570312 712.734375 C 2882.722656 685.273438 2860.144531 660.859375 2830.992188 643.992188 C 2830.746094 643.847656 2830.496094 643.710938 2830.242188 643.585938 C 2801.121094 628.882812 2769.300781 623.058594 2740.660156 627.191406 C 2715.84375 630.765625 2694.398438 641.453125 2677.554688 658.453125 C 2651.808594 620.183594 2605.753906 597.8125 2560.542969 592.023438 C 2560.277344 591.988281 2560.007812 591.960938 2559.738281 591.941406 C 2488.351562 586.726562 2406.59375 621.289062 2395.714844 709.542969 C 2395.691406 709.757812 2395.667969 709.976562 2395.652344 710.199219 C 2394.464844 725.253906 2390.1875 739.417969 2384.464844 753.460938 C 2370.660156 735.191406 2351.777344 720.625 2329.578125 711.316406 C 2333.515625 698.128906 2339.113281 689.082031 2346.96875 677.097656 C 2356.304688 663.410156 2356.949219 648.21875 2348.730469 635.390625 C 2339.355469 620.757812 2319.441406 612.398438 2301.375 615.515625 C 2285.816406 618.195312 2273.90625 628.84375 2268.691406 644.394531 C 2246.644531 625.476562 2213.660156 616.410156 2187.09375 620.910156 C 2186.054688 621.085938 2185.039062 621.371094 2184.058594 621.761719 C 2174.925781 625.402344 2166.070312 637.367188 2167.964844 648.714844 C 2168.066406 649.320312 2168.203125 649.917969 2168.378906 650.507812 C 2169 652.601562 2169.644531 655.136719 2170.390625 658.078125 C 2174.421875 673.972656 2180.652344 698.539062 2200.539062 720.691406 C 2175.324219 736.925781 2156.667969 761.539062 2149.371094 791.046875 C 2149.351562 791.113281 2149.335938 791.183594 2149.320312 791.25 C 2144.875 810.378906 2135.609375 819.679688 2123.878906 831.453125 C 2114.578125 840.785156 2104.253906 851.175781 2095.558594 867.222656 C 2079.011719 872.425781 2063.945312 880.964844 2050.230469 892.902344 C 2047.683594 877.957031 2039.535156 865.734375 2026.5625 858.121094 C 2020.167969 854.367188 2012.96875 852.082031 2005.535156 851.15625 L 2005.535156 725.765625 C 2005.535156 709.394531 2005.535156 659.585938 1971.910156 619.757812 C 1940.578125 582.480469 1917.1875 551.066406 1909.621094 500.34375 C 1919.15625 496.035156 1925.820312 486.464844 1925.820312 475.347656 L 1925.820312 445.300781 C 1925.820312 441.457031 1924.917969 437.78125 1923.351562 434.4375 C 1924.910156 431.257812 1925.820312 427.722656 1925.820312 424.015625 L 1925.820312 365.792969 C 1925.820312 352.617188 1914.675781 341.484375 1901.488281 341.484375 L 1758.382812 341.484375 C 1744.617188 341.484375 1733.421875 352.390625 1733.421875 365.792969 L 1733.421875 424.015625 C 1733.421875 427.757812 1734.320312 431.292969 1735.878906 434.460938 C 1734.316406 437.796875 1733.421875 441.464844 1733.421875 445.300781 L 1733.421875 475.347656 C 1733.421875 486.695312 1740.351562 496.453125 1750.207031 500.625 C 1742.605469 551.128906 1719.28125 582.484375 1688.058594 619.640625 C 1685.449219 622.625 1682.988281 625.789062 1680.648438 629.09375 C 1673.113281 617.386719 1663.539062 606.152344 1652.039062 595.621094 C 1655.625 591.058594 1657.808594 585.371094 1657.808594 579.273438 L 1657.808594 552.351562 C 1657.808594 548.464844 1656.90625 544.746094 1655.335938 541.371094 C 1656.910156 538.085938 1657.808594 534.390625 1657.808594 530.441406 L 1657.808594 467.835938 C 1657.808594 453.855469 1646.84375 442.902344 1632.851562 442.902344 L 1463.382812 442.902344 C 1449.386719 442.902344 1438.421875 453.855469 1438.421875 467.835938 L 1438.421875 530.441406 C 1438.421875 534.351562 1439.304688 538.011719 1440.847656 541.277344 C 1439.304688 544.65625 1438.421875 548.402344 1438.421875 552.351562 L 1438.421875 579.273438 C 1438.421875 585.457031 1440.546875 591.140625 1444.082031 595.679688 C 1429.429688 609.230469 1417.429688 624.601562 1408.90625 640.792969 C 1406.066406 640.355469 1403.183594 640.128906 1400.277344 640.152344 C 1393.148438 629.488281 1377.09375 609.417969 1345.183594 615.3125 C 1313.148438 621.230469 1305.476562 645.710938 1302.730469 658.476562 C 1293.46875 661.957031 1285.203125 668.195312 1279.179688 676.210938 C 1275.214844 676.878906 1271.289062 677.976562 1267.464844 679.519531 C 1250.074219 666.710938 1225.484375 665.386719 1206.785156 677.515625 C 1187.28125 689.832031 1178.28125 713.234375 1183.40625 734.679688 C 1180.679688 737.394531 1178.273438 740.34375 1176.207031 743.480469 C 1166.449219 745.792969 1157.386719 750.910156 1150.226562 758.183594 C 1137.839844 755.707031 1111.542969 752.949219 1093.253906 780.015625 C 1093.210938 780.078125 1093.171875 780.140625 1093.128906 780.203125 C 1075.503906 807.164062 1087.710938 829.980469 1094.742188 840.476562 C 1088.253906 854.886719 1088.332031 871.589844 1095.339844 885.992188 C 1100.6875 896.988281 1109.390625 905.484375 1120.085938 910.597656 C 1114.074219 930.285156 1120.128906 951.496094 1137.074219 965.976562 C 1153.875 980.335938 1175.589844 983.085938 1194.171875 974.386719 C 1202.878906 984.089844 1215.101562 990.457031 1228.695312 991.898438 C 1230.699219 992.109375 1232.683594 992.214844 1234.65625 992.214844 C 1251.886719 992.214844 1267.632812 984.179688 1277.820312 970.035156 C 1275.5 1001.101562 1284.472656 1036.148438 1303.832031 1071.84375 L 1178.957031 1393.355469 C 1177.332031 1397.539062 1177.675781 1402.226562 1179.894531 1406.128906 C 1182.109375 1410.027344 1185.964844 1412.722656 1190.390625 1413.464844 L 1305.359375 1432.777344 L 1305.359375 1842.617188 C 1305.359375 1849.90625 1310.625 1856.128906 1317.816406 1857.328125 L 2108.039062 1989.425781 C 2110.253906 1989.789062 2112.574219 1989.652344 2114.726562 1989.015625 L 2737.367188 1804.960938 C 2743.707031 1803.085938 2748.054688 1797.265625 2748.054688 1790.65625 L 2748.054688 1392.371094 L 2853.496094 1361.09375 C 2857.417969 1359.933594 2860.6875 1357.207031 2862.546875 1353.566406 C 2864.402344 1349.917969 2864.683594 1345.671875 2863.316406 1341.816406 L 2749.296875 1019.691406 C 2759.292969 999.507812 2770.140625 981.015625 2796.644531 971.40625 C 2863.785156 946.804688 2868.65625 907.808594 2873.363281 870.101562 C 2875.847656 850.226562 2878.414062 829.671875 2890.402344 809 C 2890.511719 808.8125 2890.617188 808.621094 2890.71875 808.429688 C 2906.898438 777.492188 2908.234375 744.402344 2894.570312 712.734375 Z M 2396.621094 798.3125 C 2409.480469 771.980469 2422.777344 744.753906 2425.363281 712.882812 C 2434.03125 643.996094 2497.679688 617.449219 2557.15625 621.667969 C 2616.4375 629.402344 2673.574219 668.117188 2668.085938 737.347656 C 2663.953125 769.40625 2671.539062 798.894531 2678.875 827.417969 C 2692.203125 879.230469 2702.730469 920.15625 2642.605469 964.863281 C 2604.25 993.554688 2588.15625 1021.804688 2575.222656 1044.503906 C 2573.953125 1046.734375 2572.726562 1048.882812 2571.511719 1050.972656 L 2525.699219 1064.515625 L 2533.660156 986.390625 L 2595.019531 941.933594 C 2601.691406 937.097656 2603.179688 927.773438 2598.34375 921.101562 C 2593.511719 914.429688 2584.183594 912.941406 2577.515625 917.773438 L 2537.714844 946.609375 L 2544.519531 879.820312 L 2594.394531 843.640625 C 2601.066406 838.800781 2602.550781 829.476562 2597.714844 822.804688 C 2592.875 816.136719 2583.542969 814.652344 2576.878906 819.492188 L 2548.574219 840.023438 L 2555.402344 773.023438 L 2586.3125 750.304688 C 2592.953125 745.425781 2594.378906 736.089844 2589.5 729.453125 C 2584.617188 722.8125 2575.285156 721.386719 2568.644531 726.265625 L 2559.480469 733 L 2563.445312 694.097656 C 2564.28125 685.902344 2558.3125 678.582031 2550.121094 677.746094 C 2541.894531 676.90625 2534.601562 682.878906 2533.765625 691.074219 L 2529.871094 729.308594 L 2523.253906 722.007812 C 2517.71875 715.902344 2508.285156 715.441406 2502.183594 720.972656 C 2496.082031 726.503906 2495.617188 735.9375 2501.148438 742.042969 L 2525.800781 769.246094 L 2518.898438 836.960938 L 2495.589844 811.480469 C 2490.027344 805.402344 2480.59375 804.984375 2474.515625 810.542969 C 2468.4375 816.101562 2468.015625 825.539062 2473.578125 831.617188 L 2514.847656 876.726562 L 2508.085938 943.082031 L 2475.535156 907.292969 C 2469.996094 901.203125 2460.558594 900.757812 2454.460938 906.296875 C 2448.367188 911.839844 2447.921875 921.273438 2453.464844 927.367188 L 2504.023438 982.953125 L 2494.796875 1073.648438 L 2491.726562 1074.558594 C 2491.636719 1068.957031 2491.277344 1063.667969 2490.617188 1058.359375 C 2485.382812 1008.882812 2459.34375 964.953125 2419.644531 937.058594 C 2427.421875 929.695312 2434.199219 921.253906 2439.558594 911.992188 C 2443.953125 905.140625 2445.03125 897.472656 2442.582031 890.335938 C 2439.792969 882.195312 2432.8125 875.886719 2422.921875 872.554688 C 2407.003906 866.910156 2389.6875 864.828125 2372.875 866.132812 C 2374.566406 843.488281 2385.335938 821.421875 2396.621094 798.3125 Z M 2323.535156 964.359375 C 2331.1875 966.230469 2338.953125 967.1875 2346.761719 967.1875 C 2354.816406 967.1875 2362.917969 966.183594 2370.984375 964.167969 C 2378.730469 962.234375 2386.269531 959.324219 2393.460938 955.628906 C 2431.25 978.027344 2456.289062 1017.101562 2460.960938 1061.625 C 2460.96875 1061.726562 2460.980469 1061.824219 2460.996094 1061.925781 C 2461.839844 1068.648438 2462.089844 1075.445312 2461.789062 1083.40625 L 2253.476562 1144.988281 C 2250.980469 1091.984375 2230.136719 1025.898438 2205.117188 994.507812 C 2224.40625 967.785156 2252.769531 948.359375 2284.667969 939.839844 C 2284.863281 941.410156 2285.300781 942.929688 2285.976562 944.351562 C 2288.953125 955.824219 2292.425781 966.226562 2295.480469 974.472656 C 2297.707031 980.492188 2303.40625 984.214844 2309.46875 984.214844 C 2311.1875 984.214844 2312.9375 983.914062 2314.644531 983.28125 C 2322.292969 980.453125 2326.222656 972.023438 2323.535156 964.359375 Z M 2317.558594 930.839844 C 2322.515625 919.984375 2330.785156 911.375 2342.246094 905.152344 C 2361.929688 894.476562 2389.0625 892.597656 2411.773438 900.265625 C 2400.691406 917.476562 2383.011719 930.410156 2363.75 935.226562 C 2348.277344 939.089844 2332.507812 937.5625 2317.558594 930.839844 Z M 2296.378906 655.898438 C 2298.386719 647.261719 2303.082031 645.492188 2306.441406 644.914062 C 2313.417969 643.710938 2320.953125 647.339844 2323.609375 651.484375 C 2324.355469 652.648438 2325.90625 655.070312 2322.28125 660.347656 C 2322.21875 660.4375 2322.160156 660.527344 2322.097656 660.617188 C 2313.222656 674.15625 2306.140625 685.839844 2301.144531 702.304688 C 2297.222656 701.488281 2293.234375 700.878906 2289.179688 700.429688 C 2290.214844 683.492188 2292.421875 673.160156 2296.378906 655.898438 Z M 2199.308594 650.746094 C 2199.210938 650.363281 2199.113281 649.980469 2199.019531 649.601562 C 2224.34375 648.554688 2252.984375 663.460938 2260.925781 682.328125 C 2260.222656 687.796875 2259.683594 693.621094 2259.304688 700.335938 C 2248.777344 701.414062 2238.621094 703.679688 2228.992188 706.972656 C 2209.035156 688.914062 2203.449219 667.078125 2199.308594 650.746094 Z M 2145.011719 852.511719 C 2158.265625 839.207031 2171.972656 825.453125 2178.355469 798.117188 C 2188.414062 757.664062 2227.601562 729.414062 2273.691406 729.414062 C 2285.683594 729.414062 2296.601562 731.1875 2307.0625 734.839844 C 2307.234375 734.902344 2307.40625 734.957031 2307.582031 735.011719 C 2334.867188 743.421875 2357.578125 762.160156 2369.546875 785.765625 C 2356.269531 812.953125 2342.699219 840.96875 2342.804688 872.417969 C 2337.671875 874.234375 2332.710938 876.386719 2328.019531 878.929688 C 2320.746094 882.875 2314.28125 887.578125 2308.644531 892.9375 C 2308.839844 884.390625 2310.140625 877.003906 2312.59375 871.042969 C 2315.726562 863.425781 2312.089844 854.707031 2304.46875 851.574219 C 2296.851562 848.441406 2288.132812 852.078125 2285 859.695312 C 2278.8125 874.742188 2277.917969 892.621094 2279.691406 910.335938 C 2241.582031 919.867188 2207.414062 942.242188 2183.628906 973.363281 C 2174.222656 966.089844 2164.070312 960.53125 2153.316406 956.722656 C 2159.625 936.015625 2162.28125 911.59375 2161.191406 883.824219 C 2161.03125 863.324219 2145.90625 861.097656 2139.566406 861.097656 C 2139.5625 861.097656 2139.5625 861.097656 2139.558594 861.097656 C 2138.589844 861.085938 2137.628906 861.097656 2136.667969 861.101562 C 2139.382812 858.167969 2142.171875 855.359375 2145.011719 852.511719 Z M 2047.945312 939.933594 C 2070.433594 908.398438 2097.191406 892.703125 2131.550781 891.0625 C 2131.941406 913.941406 2129.332031 934.261719 2123.921875 950.746094 C 2123.882812 950.78125 2123.84375 950.808594 2123.804688 950.839844 C 2119.605469 950.597656 2115.351562 950.566406 2111.03125 950.796875 C 2090.777344 951.886719 2069.886719 958.210938 2049.257812 969.351562 C 2048.742188 965.398438 2048.390625 961.808594 2048.1875 958.398438 C 2048.183594 958.308594 2048.175781 958.222656 2048.167969 958.132812 C 2047.707031 952.09375 2047.644531 945.992188 2047.945312 939.933594 Z M 1980.542969 885.933594 C 1989.484375 879.457031 2002.488281 878.582031 2011.460938 883.851562 C 2019.113281 888.339844 2022.324219 896.433594 2021.011719 907.90625 C 2019.707031 917.074219 2019.054688 925.535156 2018.425781 933.714844 C 2017.746094 942.53125 2017.742188 951.472656 2018.414062 960.292969 C 2018.960938 969.417969 2020.335938 978.671875 2021.882812 987.222656 C 2019.175781 989.203125 2016.503906 991.234375 2013.941406 993.398438 C 2013.339844 993.90625 2012.746094 994.609375 2012.089844 995.042969 C 2011.46875 995.453125 2011.617188 995.367188 2010.820312 995.277344 C 2010.003906 995.191406 2009.167969 994.859375 2008.355469 994.667969 C 2003.097656 993.425781 1997.835938 992.1875 1992.539062 991.117188 C 1981.425781 963.328125 1977.445312 946.417969 1971.300781 918.554688 C 1968.121094 903.894531 1971.316406 892.613281 1980.542969 885.933594 Z M 1763.257812 371.320312 L 1895.988281 371.320312 L 1895.988281 418.488281 L 1763.257812 418.488281 Z M 1763.257812 448.320312 L 1895.988281 448.320312 L 1895.988281 472.953125 L 1763.257812 472.953125 Z M 1695.679688 727.535156 C 1702.65625 705.726562 1702.566406 683.402344 1696 661.832031 C 1700.035156 653.261719 1704.925781 645.65625 1710.597656 639.191406 C 1710.664062 639.113281 1710.734375 639.03125 1710.800781 638.953125 C 1744.734375 598.578125 1771.753906 562.144531 1780.0625 502.789062 L 1879.808594 502.789062 C 1888.117188 562.144531 1915.140625 598.582031 1949.089844 638.976562 C 1975.699219 670.496094 1975.699219 710.648438 1975.699219 725.765625 L 1975.699219 772.199219 L 1689.078125 772.199219 C 1690.546875 758.800781 1692.710938 743.996094 1695.679688 727.535156 Z M 1686.832031 802.035156 L 1975.699219 802.035156 L 1975.699219 854.917969 C 1971.230469 856.671875 1966.957031 858.9375 1963.042969 861.769531 C 1944.050781 875.523438 1936.433594 898.527344 1942.15625 924.925781 C 1947.359375 948.511719 1951.261719 965.324219 1959.121094 987.164062 C 1938.492188 986.605469 1919.371094 989.628906 1902.476562 996.253906 C 1887.902344 1001.96875 1875.285156 1010.226562 1864.820312 1020.734375 L 1756.609375 1020.734375 C 1748.976562 969.929688 1732.421875 942.246094 1717.277344 916.972656 C 1700.082031 888.277344 1684.640625 862.503906 1686.832031 802.035156 Z M 1834.050781 1138.90625 C 1834.15625 1139.527344 1834.300781 1140.140625 1834.480469 1140.742188 L 1834.734375 1141.585938 L 1756.808594 1128.558594 C 1759.390625 1118.132812 1760.730469 1108.046875 1760.746094 1098.433594 C 1761.152344 1080.734375 1760.777344 1064.898438 1759.800781 1050.570312 L 1843.765625 1050.570312 C 1840.890625 1056.488281 1838.425781 1062.773438 1836.40625 1069.410156 C 1830.375 1088.785156 1829.585938 1112.167969 1834.050781 1138.90625 Z M 1468.257812 472.738281 L 1627.976562 472.738281 L 1627.976562 525.539062 L 1468.257812 525.539062 Z M 1468.257812 555.375 L 1627.976562 555.375 L 1627.976562 576.25 L 1468.257812 576.25 Z M 1478.226562 606.082031 L 1617.933594 606.082031 C 1641.445312 623.753906 1684.882812 665.109375 1667.015625 719.207031 C 1666.796875 719.867188 1666.628906 720.539062 1666.503906 721.222656 C 1642.949219 850.96875 1666.621094 890.476562 1691.683594 932.304688 C 1712.066406 966.320312 1733.144531 1001.496094 1730.917969 1097.914062 C 1730.914062 1098.027344 1730.914062 1098.140625 1730.914062 1098.257812 C 1730.914062 1106.09375 1729.722656 1114.492188 1727.371094 1123.34375 L 1602.398438 1102.304688 C 1588.765625 1000.292969 1533.726562 904.921875 1467.648438 868.875 C 1460.984375 864.890625 1454.332031 861.480469 1447.785156 858.71875 C 1466.050781 854.324219 1480.265625 841.324219 1486.132812 823.394531 C 1490.367188 810.445312 1489.484375 796.65625 1484.070312 784.667969 C 1499.328125 771.335938 1505.46875 750.613281 1499.15625 729.683594 C 1492.664062 708.15625 1475.410156 694.019531 1454.609375 691.703125 C 1454.253906 680.289062 1450.183594 669.234375 1442.640625 660.058594 C 1441.253906 658.375 1439.777344 656.792969 1438.222656 655.300781 C 1437.59375 654.542969 1436.898438 653.816406 1436.09375 653.148438 C 1445.542969 635.78125 1460.117188 619.464844 1478.226562 606.082031 Z M 1338.296875 1009.789062 C 1333.691406 1002.957031 1324.425781 1001.152344 1317.589844 1005.753906 L 1311.125 1010.109375 C 1303.980469 980.839844 1305.191406 948.339844 1328.851562 921.03125 C 1329.710938 920.28125 1330.480469 919.414062 1331.160156 918.457031 C 1337.078125 912.097656 1344.261719 906.042969 1352.90625 900.402344 C 1352.914062 900.394531 1352.925781 900.386719 1352.9375 900.382812 C 1384.175781 879.886719 1416.082031 877.132812 1447.769531 892.199219 C 1458.34375 897.226562 1468.699219 904.226562 1478.648438 912.851562 L 1464.035156 922.355469 C 1457.128906 926.847656 1455.171875 936.089844 1459.664062 942.996094 C 1462.523438 947.390625 1467.304688 949.78125 1472.183594 949.78125 C 1474.972656 949.78125 1477.792969 949 1480.300781 947.367188 L 1499.980469 934.566406 C 1515.773438 953.113281 1529.980469 975.71875 1541.722656 1000.78125 L 1501.675781 1026.917969 C 1494.777344 1031.417969 1492.835938 1040.664062 1497.335938 1047.5625 C 1500.199219 1051.945312 1504.972656 1054.328125 1509.84375 1054.328125 C 1512.636719 1054.328125 1515.464844 1053.542969 1517.980469 1051.902344 L 1553.421875 1028.769531 C 1561.066406 1049.460938 1567.019531 1071.269531 1570.847656 1093.453125 C 1571.035156 1094.683594 1571.226562 1095.914062 1571.425781 1097.148438 L 1329.800781 1057.167969 C 1326.839844 1051.679688 1323.878906 1045.699219 1321.121094 1039.347656 L 1334.261719 1030.496094 C 1341.09375 1025.890625 1342.898438 1016.621094 1338.296875 1009.789062 Z M 1331.296875 667.742188 C 1333.511719 656.269531 1336.335938 647.285156 1350.601562 644.648438 C 1364.792969 642.035156 1370.726562 649.304688 1377.011719 659.085938 C 1379.476562 662.925781 1385.835938 672.828125 1396.832031 670.253906 C 1405.40625 668.976562 1414.078125 672.292969 1419.59375 679 C 1424.976562 685.554688 1426.253906 694.03125 1423.09375 702.261719 C 1421.175781 707.257812 1422.082031 712.898438 1425.464844 717.042969 C 1428.84375 721.1875 1434.1875 723.203125 1439.46875 722.324219 L 1443.234375 721.699219 C 1443.300781 721.6875 1443.363281 721.675781 1443.429688 721.664062 C 1458.941406 718.878906 1467.753906 728.878906 1470.59375 738.296875 C 1473.503906 747.953125 1471.585938 760.441406 1457.46875 766.535156 C 1453 768.464844 1449.753906 772.453125 1448.769531 777.222656 C 1447.789062 781.992188 1449.199219 786.9375 1452.542969 790.476562 C 1458.574219 796.859375 1460.53125 805.695312 1457.777344 814.117188 C 1456.464844 818.128906 1452.039062 827.714844 1439.355469 830.039062 C 1439.226562 830.0625 1439.101562 830.089844 1438.976562 830.113281 C 1426.4375 832.746094 1416.738281 841.175781 1411.816406 852.886719 C 1409.902344 852.816406 1407.992188 852.777344 1406.078125 852.800781 C 1414.410156 842.265625 1418.46875 829.027344 1417.214844 815.144531 C 1415.992188 801.601562 1409.714844 789.300781 1399.980469 780.445312 C 1408.828125 761.839844 1406.199219 740.003906 1391.90625 723.066406 C 1377.511719 706.003906 1356.210938 699.816406 1336.328125 705.738281 C 1332.421875 697.417969 1326.394531 690.3125 1318.722656 685.019531 C 1328.445312 682.425781 1330.359375 672.601562 1331.296875 667.742188 Z M 1285.644531 935.535156 C 1272.652344 935.335938 1261.179688 941.144531 1253.90625 952.222656 C 1246.71875 962.605469 1236.085938 962.683594 1231.839844 962.230469 C 1222.882812 961.28125 1215.582031 955.957031 1212.308594 947.980469 C 1210.457031 943.460938 1206.503906 940.136719 1201.734375 939.078125 C 1196.964844 938.023438 1191.976562 939.367188 1188.390625 942.683594 C 1176.804688 953.378906 1163.949219 949.699219 1156.460938 943.300781 C 1149.167969 937.070312 1143.597656 925.433594 1151.589844 912.964844 L 1153.65625 910.390625 C 1157.148438 906.039062 1157.917969 900.101562 1155.652344 895 C 1153.386719 889.898438 1148.464844 886.492188 1142.894531 886.164062 C 1133.542969 885.613281 1125.988281 880.796875 1122.167969 872.945312 C 1118.363281 865.117188 1119.101562 856.105469 1124.148438 848.835938 C 1124.332031 848.570312 1124.507812 848.296875 1124.675781 848.019531 C 1130.175781 838.875 1124.429688 830.808594 1121.34375 826.472656 C 1114.617188 817.03125 1110.105469 808.835938 1118.039062 796.625 C 1126.316406 784.449219 1135.789062 785.46875 1147.304688 788.070312 C 1151.835938 789.097656 1162.15625 791.398438 1168.332031 782.972656 C 1170.132812 792.652344 1174.449219 801.457031 1180.875 808.613281 C 1165.605469 826.976562 1165.648438 849.359375 1174.046875 866.066406 C 1182.628906 883.140625 1201.273438 896.757812 1223.566406 895.945312 C 1227.910156 908.433594 1236.855469 919.105469 1248.988281 925.605469 C 1257.015625 929.910156 1265.644531 932.046875 1274.253906 932.046875 C 1278.839844 932.046875 1283.414062 931.402344 1287.890625 930.195312 C 1287.09375 931.953125 1286.351562 933.738281 1285.644531 935.535156 Z M 1287.539062 898.023438 C 1276.71875 905.21875 1266.828125 901.320312 1263.082031 899.3125 C 1255.175781 895.074219 1250.457031 887.304688 1250.457031 878.519531 C 1250.457031 873.65625 1248.085938 869.097656 1244.105469 866.304688 C 1240.121094 863.511719 1235.027344 862.839844 1230.457031 864.496094 C 1216.625 869.515625 1205.335938 861.882812 1200.703125 852.667969 C 1198.515625 848.3125 1192.882812 833.09375 1212.378906 820.222656 C 1216.847656 817.273438 1219.394531 812.148438 1219.042969 806.804688 C 1218.695312 801.457031 1215.507812 796.710938 1210.691406 794.363281 C 1202.800781 790.519531 1197.769531 783.082031 1197.242188 774.46875 C 1197.039062 771.179688 1197.5 768 1198.554688 765.03125 C 1199.269531 763.90625 1199.828125 762.679688 1200.222656 761.382812 C 1202.253906 757.761719 1205.261719 754.570312 1209.144531 752.046875 C 1215.589844 747.863281 1217.800781 739.472656 1214.253906 732.65625 C 1208.941406 722.429688 1212.753906 708.996094 1222.761719 702.714844 C 1222.832031 702.667969 1222.90625 702.621094 1222.976562 702.574219 C 1232.582031 696.3125 1246.296875 698.34375 1253.550781 707.109375 C 1258.421875 712.988281 1266.945312 714.242188 1273.300781 710.015625 C 1277.179688 707.4375 1281.40625 705.921875 1285.636719 705.480469 C 1287.125 705.679688 1288.617188 705.652344 1290.070312 705.410156 C 1293.195312 705.644531 1296.257812 706.476562 1299.113281 707.933594 C 1306.71875 711.8125 1311.285156 719.214844 1311.648438 728.242188 C 1311.871094 733.859375 1315.238281 738.875 1320.355469 741.210938 C 1325.46875 743.546875 1331.464844 742.808594 1335.859375 739.300781 L 1338.390625 737.277344 C 1351.167969 729.285156 1362.890625 734.941406 1369.105469 742.304688 C 1375.496094 749.878906 1379.128906 762.84375 1368.34375 774.464844 C 1365.046875 778.015625 1363.679688 782.949219 1364.679688 787.691406 C 1365.679688 792.433594 1368.921875 796.394531 1373.375 798.3125 C 1381.429688 801.78125 1386.710938 809.078125 1387.5 817.824219 C 1388.300781 826.679688 1384.351562 834.691406 1376.664062 839.800781 C 1368.339844 845.339844 1362.882812 853.285156 1360.824219 862.464844 C 1356.875 864.117188 1352.949219 865.988281 1349.042969 868.058594 L 1331.566406 841.472656 L 1345.828125 809.464844 C 1349.179688 801.9375 1345.796875 793.121094 1338.273438 789.769531 C 1330.746094 786.414062 1321.929688 789.796875 1318.574219 797.320312 L 1312.097656 811.859375 L 1295.558594 786.695312 L 1304.464844 766.121094 C 1307.738281 758.5625 1304.261719 749.78125 1296.699219 746.507812 C 1289.136719 743.238281 1280.359375 746.710938 1277.085938 754.269531 L 1275.957031 756.878906 L 1263.699219 738.230469 C 1259.171875 731.34375 1249.921875 729.433594 1243.039062 733.957031 C 1236.15625 738.484375 1234.242188 747.734375 1238.769531 754.617188 L 1250.738281 772.824219 L 1248.722656 772.824219 C 1240.484375 772.824219 1233.804688 779.503906 1233.804688 787.742188 C 1233.804688 795.980469 1240.484375 802.660156 1248.722656 802.660156 L 1270.347656 802.660156 L 1286.953125 827.917969 L 1271.945312 827.917969 C 1263.707031 827.917969 1257.027344 834.59375 1257.027344 842.832031 C 1257.027344 851.070312 1263.707031 857.75 1271.945312 857.75 L 1306.5625 857.75 L 1324.140625 884.492188 C 1320.871094 887.132812 1317.742188 889.855469 1314.792969 892.683594 C 1305.214844 890.742188 1295.8125 892.523438 1287.539062 898.023438 Z M 1213.398438 1387.078125 L 1329.785156 1087.425781 L 2089.964844 1214.5 L 1973.570312 1514.75 Z M 2095.582031 1957.09375 L 1335.191406 1829.984375 L 1335.191406 1437.785156 L 1977.777344 1545.710938 C 1981.039062 1546.257812 1984.105469 1546.730469 1987.359375 1545.757812 C 1991.726562 1544.457031 1995.34375 1541.117188 1996.992188 1536.867188 L 2095.582031 1282.554688 Z M 2109.566406 1187.527344 L 1867.539062 1147.070312 L 1863.328125 1133.070312 C 1859.851562 1111.667969 1860.390625 1092.734375 1864.917969 1078.191406 C 1881.082031 1025.136719 1932.238281 1004.789062 2001.765625 1023.753906 C 2010.863281 1026.226562 2021.625 1027.296875 2032.640625 1016.675781 C 2087.792969 970.765625 2142.480469 968.183594 2179 1009.804688 C 2179.074219 1009.890625 2179.148438 1009.980469 2179.226562 1010.0625 C 2202.417969 1035.292969 2223.433594 1104.5 2223.886719 1153.734375 Z M 2718.222656 1779.511719 L 2125.414062 1954.746094 L 2125.414062 1289.808594 L 2212.550781 1536.445312 C 2215.15625 1543.820312 2223.371094 1548 2230.859375 1545.777344 L 2718.222656 1401.21875 Z M 2829.949219 1336.960938 L 2235.960938 1513.144531 L 2129.800781 1212.65625 L 2723.796875 1037.066406 Z M 2864.421875 794.332031 C 2849.535156 820.148438 2846.46875 844.714844 2843.761719 866.402344 C 2839.351562 901.71875 2836.4375 925.050781 2786.425781 943.375 C 2749.40625 956.800781 2734.03125 983.324219 2722.632812 1006.300781 L 2613.53125 1038.550781 C 2623.800781 1022.769531 2637.484375 1005.949219 2660.441406 988.777344 C 2709.273438 952.46875 2720.503906 914.949219 2718.714844 878.84375 L 2767.886719 801.300781 L 2804.136719 794.921875 C 2812.253906 793.492188 2817.671875 785.757812 2816.246094 777.644531 C 2814.816406 769.53125 2807.082031 764.109375 2798.96875 765.539062 L 2789.507812 767.207031 L 2809.128906 736.257812 C 2813.542969 729.300781 2811.480469 720.085938 2804.519531 715.671875 C 2797.5625 711.257812 2788.34375 713.320312 2783.933594 720.28125 L 2764.09375 751.566406 L 2761.292969 741.71875 C 2759.042969 733.792969 2750.796875 729.191406 2742.867188 731.449219 C 2734.941406 733.703125 2730.347656 741.953125 2732.597656 749.878906 L 2742.679688 785.335938 L 2711.453125 834.582031 C 2710.257812 829.664062 2709.007812 824.792969 2707.769531 819.984375 C 2701.113281 794.101562 2694.226562 767.335938 2697.714844 740.859375 C 2697.746094 740.617188 2697.773438 740.375 2697.792969 740.132812 C 2699.390625 720.699219 2697.121094 703.113281 2691.855469 687.398438 C 2722.574219 647.738281 2775.621094 649.582031 2816.417969 670.027344 C 2858.132812 694.34375 2890.8125 743.484375 2864.421875 794.332031 Z M 2864.421875 794.332031 "/><path style=" stroke:none;fill-rule:nonzero;fill:#ffffff;fill-opacity:1;" d="M 2483.1875 1781.945312 C 2485.796875 1783.894531 2488.933594 1784.914062 2492.117188 1784.914062 C 2493.53125 1784.914062 2494.953125 1784.710938 2496.34375 1784.300781 L 2659.535156 1736.097656 C 2665.875 1734.226562 2670.226562 1728.402344 2670.226562 1721.792969 L 2670.226562 1589.695312 C 2670.226562 1584.992188 2668.007812 1580.5625 2664.238281 1577.746094 C 2660.46875 1574.929688 2655.589844 1574.058594 2651.082031 1575.390625 L 2487.890625 1623.597656 C 2481.550781 1625.46875 2477.199219 1631.289062 2477.199219 1637.902344 L 2477.199219 1769.996094 C 2477.199219 1774.699219 2479.417969 1779.128906 2483.1875 1781.945312 Z M 2507.03125 1649.046875 L 2640.390625 1609.65625 L 2640.390625 1710.644531 L 2507.03125 1750.035156 Z M 2507.03125 1649.046875 "/><path style=" stroke:none;fill-rule:nonzero;fill:#ffffff;fill-opacity:1;" d="M 1525.457031 1712.710938 L 1404.945312 1692.675781 C 1396.824219 1691.324219 1389.136719 1696.816406 1387.785156 1704.945312 C 1386.433594 1713.074219 1391.925781 1720.753906 1400.054688 1722.105469 L 1520.5625 1742.140625 C 1521.390625 1742.277344 1522.214844 1742.34375 1523.027344 1742.34375 C 1530.191406 1742.34375 1536.511719 1737.167969 1537.726562 1729.871094 C 1539.074219 1721.742188 1533.582031 1714.0625 1525.457031 1712.710938 Z M 1525.457031 1712.710938 "/><path style=" stroke:none;fill-rule:nonzero;fill:#ffffff;fill-opacity:1;" d="M 1525.457031 1772.183594 L 1404.945312 1752.148438 C 1396.824219 1750.792969 1389.136719 1756.292969 1387.785156 1764.417969 C 1386.433594 1772.546875 1391.925781 1780.226562 1400.054688 1781.582031 L 1520.5625 1801.613281 C 1521.390625 1801.75 1522.214844 1801.816406 1523.027344 1801.816406 C 1530.191406 1801.816406 1536.511719 1796.644531 1537.726562 1789.34375 C 1539.074219 1781.21875 1533.582031 1773.535156 1525.457031 1772.183594 Z M 1525.457031 1772.183594 "/><path style=" stroke:none;fill-rule:nonzero;fill:#000000;fill-opacity:1;" d="M 1492.714844 1682.945312 C 1491.875 1682.945312 1491.035156 1682.875 1490.195312 1682.730469 L 1369.683594 1662.070312 C 1362.523438 1660.84375 1357.289062 1654.632812 1357.289062 1647.367188 L 1357.289062 1570.988281 C 1357.289062 1566.601562 1359.214844 1562.441406 1362.558594 1559.605469 C 1365.90625 1556.773438 1370.328125 1555.546875 1374.652344 1556.269531 L 1495.160156 1576.304688 C 1502.355469 1577.5 1507.632812 1583.726562 1507.632812 1591.019531 L 1507.632812 1668.027344 C 1507.632812 1672.421875 1505.691406 1676.597656 1502.332031 1679.429688 C 1499.621094 1681.714844 1496.207031 1682.945312 1492.714844 1682.945312 Z M 1387.121094 1634.789062 L 1477.796875 1650.332031 L 1477.796875 1603.664062 L 1387.121094 1588.589844 Z M 1387.121094 1634.789062 "/><path style=" stroke:none;fill-rule:nonzero;fill:#000000;fill-opacity:1;" d="M 1381.035156 1029.75 C 1383.851562 1029.75 1386.699219 1028.957031 1389.226562 1027.289062 L 1415.226562 1010.164062 C 1422.109375 1005.628906 1424.011719 996.378906 1419.480469 989.5 C 1414.949219 982.617188 1405.695312 980.714844 1398.816406 985.246094 L 1372.816406 1002.375 C 1365.933594 1006.90625 1364.03125 1016.15625 1368.5625 1023.039062 C 1371.429688 1027.390625 1376.183594 1029.75 1381.035156 1029.75 Z M 1381.035156 1029.75 "/><path style=" stroke:none;fill-rule:nonzero;fill:#000000;fill-opacity:1;" d="M 2864.222656 712.753906 C 2852.375 685.292969 2829.796875 660.878906 2800.648438 644.007812 C 2800.402344 643.867188 2800.152344 643.730469 2799.898438 643.601562 C 2770.777344 628.898438 2738.957031 623.074219 2710.3125 627.207031 C 2685.496094 630.785156 2664.050781 641.472656 2647.207031 658.46875 C 2621.464844 620.199219 2575.410156 597.828125 2530.199219 592.035156 C 2529.929688 592.003906 2529.660156 591.976562 2529.390625 591.957031 C 2458.003906 586.742188 2376.25 621.304688 2365.371094 709.5625 C 2365.34375 709.78125 2365.324219 710 2365.304688 710.21875 C 2364.121094 725.277344 2359.84375 739.441406 2354.121094 753.484375 C 2340.316406 735.210938 2321.433594 720.648438 2299.230469 711.335938 C 2303.171875 698.148438 2308.769531 689.101562 2316.625 677.117188 C 2325.957031 663.429688 2326.601562 648.234375 2318.386719 635.40625 C 2309.007812 620.777344 2289.09375 612.414062 2271.027344 615.53125 C 2255.472656 618.210938 2243.5625 628.863281 2238.347656 644.410156 C 2216.300781 625.492188 2183.3125 616.425781 2156.746094 620.925781 C 2155.710938 621.101562 2154.691406 621.386719 2153.710938 621.777344 C 2144.582031 625.417969 2135.726562 637.386719 2137.621094 648.734375 C 2137.722656 649.339844 2137.859375 649.9375 2138.035156 650.523438 C 2138.65625 652.617188 2139.300781 655.15625 2140.042969 658.097656 C 2144.074219 673.992188 2150.308594 698.558594 2170.195312 720.714844 C 2144.976562 736.949219 2126.324219 761.566406 2119.023438 791.074219 C 2119.007812 791.140625 2118.992188 791.210938 2118.972656 791.277344 C 2114.527344 810.40625 2105.261719 819.707031 2093.53125 831.480469 C 2084.234375 840.816406 2073.910156 851.203125 2065.214844 867.253906 C 2048.664062 872.457031 2033.601562 880.996094 2019.886719 892.9375 C 2017.339844 877.988281 2009.191406 865.765625 1996.21875 858.148438 C 1989.824219 854.398438 1982.621094 852.109375 1975.1875 851.1875 L 1975.1875 725.785156 C 1975.1875 709.417969 1975.1875 659.601562 1941.5625 619.773438 C 1910.234375 582.492188 1886.839844 551.078125 1879.277344 500.351562 C 1888.8125 496.042969 1895.472656 486.472656 1895.472656 475.355469 L 1895.472656 445.304688 C 1895.472656 441.460938 1894.574219 437.785156 1893.003906 434.441406 C 1894.566406 431.261719 1895.472656 427.726562 1895.472656 424.019531 L 1895.472656 365.792969 C 1895.472656 352.617188 1884.332031 341.484375 1871.144531 341.484375 L 1728.035156 341.484375 C 1714.273438 341.484375 1703.078125 352.390625 1703.078125 365.792969 L 1703.078125 424.019531 C 1703.078125 427.761719 1703.976562 431.296875 1705.535156 434.46875 C 1703.972656 437.804688 1703.078125 441.472656 1703.078125 445.304688 L 1703.078125 475.355469 C 1703.078125 486.703125 1710.007812 496.460938 1719.859375 500.636719 C 1712.257812 551.140625 1688.9375 582.496094 1657.714844 619.65625 C 1655.105469 622.640625 1652.644531 625.808594 1650.300781 629.113281 C 1642.769531 617.40625 1633.195312 606.167969 1621.691406 595.636719 C 1625.28125 591.070312 1627.464844 585.386719 1627.464844 579.285156 L 1627.464844 552.363281 C 1627.464844 548.476562 1626.558594 544.757812 1624.992188 541.382812 C 1626.5625 538.097656 1627.464844 534.402344 1627.464844 530.453125 L 1627.464844 467.84375 C 1627.464844 453.863281 1616.5 442.910156 1602.503906 442.910156 L 1433.035156 442.910156 C 1419.039062 442.910156 1408.078125 453.863281 1408.078125 467.84375 L 1408.078125 530.453125 C 1408.078125 534.363281 1408.960938 538.023438 1410.503906 541.289062 C 1408.960938 544.667969 1408.078125 548.414062 1408.078125 552.363281 L 1408.078125 579.285156 C 1408.078125 585.46875 1410.203125 591.152344 1413.738281 595.695312 C 1399.085938 609.246094 1387.082031 624.617188 1378.558594 640.8125 C 1375.722656 640.371094 1372.839844 640.148438 1369.933594 640.167969 C 1362.800781 629.507812 1346.75 609.433594 1314.835938 615.328125 C 1282.804688 621.246094 1275.128906 645.726562 1272.382812 658.496094 C 1263.125 661.972656 1254.859375 668.214844 1248.832031 676.230469 C 1244.871094 676.898438 1240.945312 677.996094 1237.121094 679.539062 C 1219.726562 666.730469 1195.136719 665.40625 1176.441406 677.535156 C 1156.933594 689.851562 1147.9375 713.253906 1153.058594 734.703125 C 1150.335938 737.417969 1147.929688 740.367188 1145.863281 743.503906 C 1136.101562 745.816406 1127.042969 750.933594 1119.878906 758.207031 C 1107.492188 755.730469 1081.195312 752.972656 1062.910156 780.042969 C 1062.867188 780.105469 1062.828125 780.167969 1062.785156 780.230469 C 1045.15625 807.191406 1057.367188 830.011719 1064.394531 840.503906 C 1057.910156 854.914062 1057.988281 871.621094 1064.992188 886.023438 C 1070.339844 897.019531 1079.042969 905.519531 1089.742188 910.628906 C 1083.730469 930.320312 1089.785156 951.53125 1106.730469 966.015625 C 1123.53125 980.375 1145.246094 983.125 1163.828125 974.421875 C 1172.535156 984.128906 1184.757812 990.496094 1198.351562 991.9375 C 1200.351562 992.148438 1202.339844 992.253906 1204.308594 992.253906 C 1221.542969 992.253906 1237.285156 984.21875 1247.472656 970.070312 C 1245.15625 1001.136719 1254.125 1036.1875 1273.488281 1071.882812 L 1148.609375 1393.414062 C 1146.984375 1397.597656 1147.332031 1402.289062 1149.546875 1406.191406 C 1151.765625 1410.089844 1155.621094 1412.785156 1160.042969 1413.527344 L 1275.011719 1432.839844 L 1275.011719 1842.703125 C 1275.011719 1849.992188 1280.28125 1856.214844 1287.472656 1857.417969 L 2077.695312 1989.519531 C 2079.90625 1989.886719 2082.226562 1989.746094 2084.382812 1989.113281 L 2707.023438 1805.046875 C 2713.363281 1803.171875 2717.710938 1797.351562 2717.710938 1790.738281 L 2717.710938 1392.433594 L 2823.152344 1361.15625 C 2827.074219 1359.992188 2830.34375 1357.269531 2832.199219 1353.625 C 2834.058594 1349.976562 2834.335938 1345.730469 2832.972656 1341.875 L 2718.949219 1019.730469 C 2728.949219 999.546875 2739.796875 981.054688 2766.296875 971.441406 C 2833.441406 946.839844 2838.3125 907.84375 2843.019531 870.128906 C 2845.5 850.253906 2848.070312 829.703125 2860.058594 809.027344 C 2860.167969 808.839844 2860.269531 808.648438 2860.371094 808.457031 C 2876.554688 777.515625 2877.886719 744.425781 2864.222656 712.753906 Z M 2366.277344 798.339844 C 2379.136719 772.003906 2392.433594 744.777344 2395.019531 712.902344 C 2403.6875 644.015625 2467.335938 617.464844 2526.808594 621.683594 C 2586.089844 629.417969 2643.230469 668.136719 2637.742188 737.371094 C 2633.609375 769.429688 2641.195312 798.921875 2648.53125 827.445312 C 2661.859375 879.261719 2672.386719 920.191406 2612.261719 964.898438 C 2573.90625 993.59375 2557.808594 1021.84375 2544.878906 1044.546875 C 2543.609375 1046.777344 2542.378906 1048.921875 2541.167969 1051.015625 L 2495.351562 1064.558594 L 2503.3125 986.425781 L 2564.671875 941.96875 C 2571.34375 937.132812 2572.835938 927.808594 2568 921.136719 C 2563.164062 914.460938 2553.835938 912.972656 2547.167969 917.808594 L 2507.367188 946.644531 L 2514.175781 879.851562 L 2564.050781 843.667969 C 2570.722656 838.832031 2572.203125 829.503906 2567.367188 822.835938 C 2562.527344 816.164062 2553.199219 814.679688 2546.535156 819.519531 L 2518.230469 840.050781 L 2525.058594 773.046875 L 2555.96875 750.332031 C 2562.605469 745.449219 2564.03125 736.113281 2559.15625 729.476562 C 2554.273438 722.835938 2544.9375 721.410156 2538.300781 726.289062 L 2529.136719 733.023438 L 2533.101562 694.117188 C 2533.933594 685.921875 2527.96875 678.601562 2519.773438 677.765625 C 2511.546875 676.925781 2504.257812 682.898438 2503.421875 691.09375 L 2499.523438 729.332031 L 2492.910156 722.03125 C 2487.375 715.921875 2477.941406 715.460938 2471.839844 720.992188 C 2465.734375 726.527344 2465.269531 735.960938 2470.800781 742.066406 L 2495.457031 769.273438 L 2488.554688 836.988281 L 2465.242188 811.507812 C 2459.683594 805.429688 2450.246094 805.011719 2444.167969 810.570312 C 2438.089844 816.132812 2437.671875 825.566406 2443.234375 831.644531 L 2484.503906 876.757812 L 2477.742188 943.117188 L 2445.1875 907.328125 C 2439.648438 901.234375 2430.214844 900.789062 2424.117188 906.328125 C 2418.023438 911.875 2417.578125 921.308594 2423.121094 927.402344 L 2473.675781 982.988281 L 2464.453125 1073.691406 L 2461.378906 1074.601562 C 2461.292969 1069 2460.933594 1063.710938 2460.269531 1058.402344 C 2455.039062 1008.921875 2429 964.988281 2389.300781 937.089844 C 2397.074219 929.730469 2403.855469 921.289062 2409.214844 912.023438 C 2413.609375 905.175781 2414.683594 897.503906 2412.238281 890.367188 C 2409.449219 882.230469 2402.46875 875.917969 2392.574219 872.585938 C 2376.660156 866.9375 2359.34375 864.859375 2342.53125 866.164062 C 2344.21875 843.519531 2354.988281 821.453125 2366.277344 798.339844 Z M 2293.1875 964.394531 C 2300.84375 966.265625 2308.609375 967.222656 2316.417969 967.222656 C 2324.472656 967.222656 2332.570312 966.222656 2340.636719 964.207031 C 2348.382812 962.269531 2355.925781 959.359375 2363.117188 955.664062 C 2400.902344 978.066406 2425.945312 1017.140625 2430.617188 1061.667969 C 2430.625 1061.769531 2430.636719 1061.867188 2430.652344 1061.96875 C 2431.492188 1068.691406 2431.746094 1075.488281 2431.445312 1083.449219 L 2223.128906 1145.035156 C 2220.632812 1092.027344 2199.792969 1025.9375 2174.769531 994.542969 C 2194.0625 967.820312 2222.425781 948.394531 2254.320312 939.875 C 2254.519531 941.445312 2254.957031 942.964844 2255.628906 944.386719 C 2258.609375 955.859375 2262.082031 966.261719 2265.132812 974.511719 C 2267.363281 980.527344 2273.058594 984.253906 2279.125 984.253906 C 2280.84375 984.253906 2282.59375 983.953125 2284.300781 983.320312 C 2291.945312 980.488281 2295.878906 972.058594 2293.1875 964.394531 Z M 2287.210938 930.875 C 2292.171875 920.019531 2300.441406 911.40625 2311.902344 905.1875 C 2331.582031 894.511719 2358.71875 892.628906 2381.425781 900.300781 C 2370.347656 917.507812 2352.667969 930.445312 2333.40625 935.261719 C 2317.929688 939.125 2302.164062 937.597656 2287.210938 930.875 Z M 2266.035156 655.914062 C 2268.042969 647.277344 2272.738281 645.511719 2276.097656 644.929688 C 2283.074219 643.726562 2290.609375 647.359375 2293.261719 651.503906 C 2294.007812 652.667969 2295.5625 655.085938 2291.933594 660.367188 C 2291.871094 660.457031 2291.8125 660.546875 2291.753906 660.636719 C 2282.878906 674.175781 2275.796875 685.859375 2270.796875 702.324219 C 2266.875 701.511719 2262.886719 700.898438 2258.832031 700.449219 C 2259.867188 683.511719 2262.078125 673.179688 2266.035156 655.914062 Z M 2168.964844 650.765625 C 2168.867188 650.378906 2168.769531 650 2168.675781 649.621094 C 2193.996094 648.574219 2222.640625 663.480469 2230.582031 682.347656 C 2229.878906 687.820312 2229.335938 693.640625 2228.960938 700.359375 C 2218.433594 701.4375 2208.277344 703.699219 2198.644531 706.996094 C 2178.691406 688.933594 2173.105469 667.097656 2168.964844 650.765625 Z M 2114.667969 852.539062 C 2127.921875 839.234375 2141.625 825.480469 2148.007812 798.144531 C 2158.066406 757.6875 2197.257812 729.4375 2243.34375 729.4375 C 2255.339844 729.4375 2266.253906 731.210938 2276.714844 734.863281 C 2276.890625 734.921875 2277.0625 734.980469 2277.238281 735.035156 C 2304.519531 743.445312 2327.230469 762.1875 2339.203125 785.792969 C 2325.925781 812.980469 2312.355469 841 2312.457031 872.449219 C 2307.328125 874.265625 2302.363281 876.417969 2297.671875 878.960938 C 2290.402344 882.90625 2283.933594 887.609375 2278.296875 892.96875 C 2278.492188 884.421875 2279.796875 877.035156 2282.246094 871.074219 C 2285.382812 863.457031 2281.746094 854.738281 2274.125 851.605469 C 2266.507812 848.46875 2257.789062 852.109375 2254.65625 859.726562 C 2248.46875 874.773438 2247.570312 892.652344 2249.347656 910.371094 C 2211.238281 919.902344 2177.066406 942.277344 2153.285156 973.402344 C 2143.878906 966.125 2133.726562 960.566406 2122.972656 956.757812 C 2129.28125 936.046875 2131.9375 911.625 2130.847656 883.855469 C 2130.6875 863.355469 2115.5625 861.128906 2109.21875 861.128906 C 2109.21875 861.128906 2109.214844 861.128906 2109.214844 861.128906 C 2108.246094 861.117188 2107.285156 861.128906 2106.324219 861.132812 C 2109.035156 858.199219 2111.828125 855.390625 2114.667969 852.539062 Z M 2017.597656 939.96875 C 2040.089844 908.429688 2066.84375 892.734375 2101.207031 891.097656 C 2101.59375 913.972656 2098.988281 934.296875 2093.578125 950.78125 C 2093.539062 950.816406 2093.5 950.84375 2093.460938 950.875 C 2089.261719 950.632812 2085.003906 950.601562 2080.6875 950.832031 C 2060.433594 951.921875 2039.539062 958.246094 2018.914062 969.390625 C 2018.394531 965.4375 2018.042969 961.84375 2017.84375 958.433594 C 2017.839844 958.347656 2017.832031 958.257812 2017.824219 958.167969 C 2017.359375 952.132812 2017.296875 946.027344 2017.597656 939.96875 Z M 1950.199219 885.964844 C 1959.136719 879.488281 1972.140625 878.613281 1981.117188 883.882812 C 1988.765625 888.371094 1991.980469 896.464844 1990.667969 907.9375 C 1989.363281 917.109375 1988.707031 925.566406 1988.078125 933.75 C 1987.398438 942.566406 1987.394531 951.507812 1988.066406 960.328125 C 1988.617188 969.453125 1989.992188 978.707031 1991.539062 987.257812 C 1988.832031 989.242188 1986.160156 991.269531 1983.597656 993.4375 C 1982.996094 993.945312 1982.402344 994.648438 1981.746094 995.082031 C 1981.121094 995.492188 1981.273438 995.402344 1980.472656 995.316406 C 1979.65625 995.226562 1978.820312 994.898438 1978.011719 994.707031 C 1972.753906 993.464844 1967.488281 992.222656 1962.191406 991.15625 C 1951.082031 963.363281 1947.101562 946.453125 1940.957031 918.589844 C 1937.777344 903.925781 1940.972656 892.644531 1950.199219 885.964844 Z M 1732.910156 371.320312 L 1865.640625 371.320312 L 1865.640625 418.492188 L 1732.910156 418.492188 Z M 1732.910156 448.328125 L 1865.640625 448.328125 L 1865.640625 472.960938 L 1732.910156 472.960938 Z M 1665.332031 727.558594 C 1672.308594 705.75 1672.21875 683.421875 1665.65625 661.851562 C 1669.691406 653.28125 1674.578125 645.675781 1680.25 639.210938 C 1680.320312 639.128906 1680.386719 639.050781 1680.457031 638.96875 C 1714.386719 598.59375 1741.40625 562.15625 1749.71875 502.796875 L 1849.464844 502.796875 C 1857.773438 562.160156 1884.792969 598.597656 1918.746094 638.996094 C 1945.351562 670.511719 1945.351562 710.671875 1945.351562 725.789062 L 1945.351562 772.226562 L 1658.730469 772.226562 C 1660.199219 758.824219 1662.367188 744.019531 1665.332031 727.558594 Z M 1656.484375 802.0625 L 1945.355469 802.0625 L 1945.355469 854.949219 C 1940.882812 856.703125 1936.609375 858.964844 1932.699219 861.800781 C 1913.703125 875.554688 1906.085938 898.558594 1911.8125 924.960938 C 1917.011719 948.546875 1920.914062 965.359375 1928.773438 987.203125 C 1908.148438 986.644531 1889.023438 989.667969 1872.132812 996.292969 C 1857.554688 1002.007812 1844.941406 1010.265625 1834.472656 1020.777344 L 1726.261719 1020.777344 C 1718.628906 969.964844 1702.074219 942.277344 1686.929688 917.003906 C 1669.738281 888.308594 1654.296875 862.53125 1656.484375 802.0625 Z M 1803.707031 1138.953125 C 1803.8125 1139.570312 1803.953125 1140.1875 1804.136719 1140.789062 L 1804.390625 1141.632812 L 1726.460938 1128.605469 C 1729.046875 1118.179688 1730.386719 1108.089844 1730.402344 1098.480469 C 1730.804688 1080.777344 1730.433594 1064.941406 1729.457031 1050.613281 L 1813.417969 1050.613281 C 1810.542969 1056.53125 1808.082031 1062.816406 1806.058594 1069.453125 C 1800.03125 1088.828125 1799.238281 1112.210938 1803.707031 1138.953125 Z M 1437.910156 472.746094 L 1597.628906 472.746094 L 1597.628906 525.550781 L 1437.910156 525.550781 Z M 1437.910156 555.386719 L 1597.628906 555.386719 L 1597.628906 576.261719 L 1437.910156 576.261719 Z M 1447.878906 606.097656 L 1587.589844 606.097656 C 1611.097656 623.773438 1654.535156 665.128906 1636.671875 719.230469 C 1636.453125 719.890625 1636.28125 720.5625 1636.15625 721.242188 C 1612.601562 851 1636.277344 890.507812 1661.339844 932.339844 C 1681.722656 966.359375 1702.800781 1001.53125 1700.570312 1097.957031 C 1700.566406 1098.070312 1700.566406 1098.1875 1700.566406 1098.300781 C 1700.566406 1106.136719 1699.378906 1114.539062 1697.023438 1123.386719 L 1572.054688 1102.347656 C 1558.417969 1000.332031 1503.382812 904.957031 1437.300781 868.90625 C 1430.640625 864.921875 1423.988281 861.511719 1417.441406 858.746094 C 1435.707031 854.355469 1449.921875 841.351562 1455.785156 823.421875 C 1460.019531 810.472656 1459.136719 796.683594 1453.726562 784.695312 C 1468.980469 771.359375 1475.121094 750.636719 1468.8125 729.707031 C 1462.320312 708.175781 1445.066406 694.042969 1424.261719 691.722656 C 1423.90625 680.308594 1419.839844 669.253906 1412.296875 660.078125 C 1410.910156 658.390625 1409.429688 656.808594 1407.878906 655.320312 C 1407.246094 654.5625 1406.554688 653.835938 1405.746094 653.167969 C 1415.199219 635.800781 1429.773438 619.480469 1447.878906 606.097656 Z M 1307.949219 1009.828125 C 1303.347656 1002.996094 1294.078125 1001.1875 1287.242188 1005.792969 L 1280.78125 1010.148438 C 1273.632812 980.875 1274.84375 948.375 1298.507812 921.066406 C 1299.363281 920.316406 1300.136719 919.449219 1300.816406 918.492188 C 1306.730469 912.132812 1313.914062 906.074219 1322.5625 900.433594 C 1322.570312 900.425781 1322.582031 900.421875 1322.589844 900.414062 C 1353.832031 879.917969 1385.738281 877.164062 1417.421875 892.230469 C 1428 897.261719 1438.351562 904.257812 1448.304688 912.882812 L 1433.691406 922.390625 C 1426.785156 926.882812 1424.828125 936.125 1429.320312 943.03125 C 1432.179688 947.425781 1436.960938 949.816406 1441.835938 949.816406 C 1444.625 949.816406 1447.445312 949.035156 1449.957031 947.402344 L 1469.636719 934.597656 C 1485.425781 953.148438 1499.636719 975.757812 1511.375 1000.820312 L 1471.332031 1026.957031 C 1464.429688 1031.460938 1462.488281 1040.703125 1466.992188 1047.601562 C 1469.851562 1051.988281 1474.625 1054.371094 1479.496094 1054.371094 C 1482.292969 1054.371094 1485.121094 1053.585938 1487.636719 1051.941406 L 1523.078125 1028.8125 C 1530.71875 1049.5 1536.675781 1071.3125 1540.5 1093.496094 C 1540.6875 1094.726562 1540.882812 1095.957031 1541.078125 1097.191406 L 1299.457031 1057.210938 C 1296.496094 1051.722656 1293.535156 1045.738281 1290.777344 1039.390625 L 1303.914062 1030.535156 C 1310.746094 1025.929688 1312.554688 1016.660156 1307.949219 1009.828125 Z M 1300.953125 667.761719 C 1303.164062 656.289062 1305.992188 647.300781 1320.257812 644.667969 C 1334.449219 642.050781 1340.378906 649.324219 1346.664062 659.105469 C 1349.132812 662.941406 1355.492188 672.84375 1366.488281 670.273438 C 1375.058594 668.996094 1383.734375 672.3125 1389.246094 679.019531 C 1394.632812 685.574219 1395.910156 694.054688 1392.75 702.285156 C 1390.832031 707.277344 1391.734375 712.917969 1395.117188 717.0625 C 1398.5 721.210938 1403.84375 723.226562 1409.121094 722.347656 L 1412.886719 721.722656 C 1412.953125 721.710938 1413.019531 721.699219 1413.085938 721.6875 C 1428.597656 718.902344 1437.40625 728.902344 1440.246094 738.320312 C 1443.160156 747.976562 1441.242188 760.464844 1427.125 766.558594 C 1422.652344 768.488281 1419.40625 772.480469 1418.425781 777.25 C 1417.445312 782.019531 1418.851562 786.964844 1422.195312 790.503906 C 1428.226562 796.886719 1430.183594 805.722656 1427.429688 814.144531 C 1426.117188 818.15625 1421.695312 827.742188 1409.007812 830.066406 C 1408.882812 830.089844 1408.757812 830.117188 1408.632812 830.144531 C 1396.09375 832.773438 1386.394531 841.203125 1381.472656 852.917969 C 1379.558594 852.84375 1377.644531 852.804688 1375.734375 852.828125 C 1384.0625 842.292969 1388.125 829.054688 1386.871094 815.171875 C 1385.648438 801.628906 1379.371094 789.328125 1369.636719 780.472656 C 1378.480469 761.867188 1375.855469 740.027344 1361.5625 723.089844 C 1347.164062 706.027344 1325.867188 699.835938 1305.984375 705.761719 C 1302.078125 697.441406 1296.050781 690.335938 1288.378906 685.039062 C 1298.101562 682.445312 1300.015625 672.621094 1300.953125 667.761719 Z M 1255.300781 935.570312 C 1242.308594 935.367188 1230.835938 941.179688 1223.5625 952.257812 C 1216.375 962.640625 1205.738281 962.71875 1201.492188 962.265625 C 1192.535156 961.316406 1185.234375 955.992188 1181.964844 948.015625 C 1180.109375 943.496094 1176.160156 940.167969 1171.390625 939.113281 C 1166.621094 938.054688 1161.632812 939.402344 1158.042969 942.71875 C 1146.460938 953.414062 1133.601562 949.734375 1126.113281 943.335938 C 1118.824219 937.105469 1113.253906 925.46875 1121.246094 912.996094 L 1123.308594 910.425781 C 1126.800781 906.070312 1127.574219 900.132812 1125.308594 895.03125 C 1123.042969 889.929688 1118.121094 886.523438 1112.550781 886.195312 C 1103.195312 885.644531 1095.644531 880.828125 1091.820312 872.976562 C 1088.015625 865.148438 1088.753906 856.136719 1093.800781 848.863281 C 1093.988281 848.597656 1094.164062 848.328125 1094.328125 848.046875 C 1099.832031 838.90625 1094.082031 830.835938 1090.996094 826.5 C 1084.273438 817.0625 1079.761719 808.863281 1087.695312 796.652344 C 1095.972656 784.476562 1105.441406 785.496094 1116.957031 788.097656 C 1121.492188 789.121094 1131.808594 791.421875 1137.984375 783 C 1139.785156 792.679688 1144.105469 801.484375 1150.527344 808.640625 C 1135.257812 827.003906 1135.304688 849.390625 1143.703125 866.097656 C 1152.285156 883.171875 1170.929688 896.789062 1193.21875 895.976562 C 1197.5625 908.46875 1206.507812 919.136719 1218.640625 925.640625 C 1226.671875 929.945312 1235.300781 932.082031 1243.910156 932.082031 C 1248.492188 932.078125 1253.066406 931.4375 1257.546875 930.230469 C 1256.746094 931.988281 1256.007812 933.773438 1255.300781 935.570312 Z M 1257.191406 898.058594 C 1246.375 905.25 1236.484375 901.351562 1232.734375 899.34375 C 1224.832031 895.109375 1220.113281 887.335938 1220.113281 878.550781 C 1220.113281 873.6875 1217.742188 869.128906 1213.757812 866.335938 C 1209.777344 863.542969 1204.683594 862.867188 1200.109375 864.527344 C 1186.28125 869.546875 1174.988281 861.914062 1170.359375 852.699219 C 1168.167969 848.34375 1162.539062 833.125 1182.03125 820.25 C 1186.503906 817.300781 1189.046875 812.175781 1188.699219 806.832031 C 1188.347656 801.484375 1185.160156 796.738281 1180.34375 794.390625 C 1172.453125 790.546875 1167.425781 783.109375 1166.894531 774.492188 C 1166.695312 771.203125 1167.152344 768.027344 1168.210938 765.054688 C 1168.921875 763.929688 1169.484375 762.707031 1169.875 761.40625 C 1171.910156 757.785156 1174.914062 754.59375 1178.800781 752.070312 C 1185.242188 747.886719 1187.453125 739.496094 1183.910156 732.679688 C 1178.59375 722.453125 1182.410156 709.019531 1192.417969 702.734375 C 1192.488281 702.6875 1192.5625 702.644531 1192.632812 702.597656 C 1202.234375 696.335938 1215.953125 698.367188 1223.207031 707.128906 C 1228.078125 713.007812 1236.597656 714.265625 1242.957031 710.035156 C 1246.835938 707.457031 1251.058594 705.945312 1255.289062 705.5 C 1256.78125 705.703125 1258.269531 705.671875 1259.722656 705.429688 C 1262.847656 705.667969 1265.910156 706.496094 1268.769531 707.953125 C 1276.371094 711.835938 1280.941406 719.238281 1281.300781 728.261719 C 1281.527344 733.882812 1284.894531 738.898438 1290.007812 741.234375 C 1295.125 743.570312 1301.117188 742.832031 1305.511719 739.324219 L 1308.046875 737.300781 C 1320.824219 729.308594 1332.546875 734.964844 1338.761719 742.328125 C 1345.152344 749.902344 1348.785156 762.867188 1338 774.488281 C 1334.699219 778.042969 1333.335938 782.972656 1334.335938 787.71875 C 1335.335938 792.460938 1338.578125 796.421875 1343.03125 798.339844 C 1351.085938 801.808594 1356.367188 809.105469 1357.15625 817.851562 C 1357.957031 826.707031 1354.007812 834.71875 1346.320312 839.832031 C 1337.996094 845.367188 1332.539062 853.3125 1330.476562 862.492188 C 1326.53125 864.144531 1322.601562 866.015625 1318.695312 868.089844 L 1301.21875 841.5 L 1315.480469 809.492188 C 1318.835938 801.964844 1315.453125 793.144531 1307.925781 789.792969 C 1300.402344 786.441406 1291.582031 789.824219 1288.230469 797.347656 L 1281.753906 811.886719 L 1265.210938 786.722656 L 1274.117188 766.148438 C 1277.390625 758.585938 1273.914062 749.804688 1266.355469 746.53125 C 1258.792969 743.261719 1250.011719 746.734375 1246.738281 754.296875 L 1245.609375 756.902344 L 1233.351562 738.253906 C 1228.828125 731.367188 1219.578125 729.457031 1212.695312 733.980469 C 1205.808594 738.507812 1203.898438 747.757812 1208.421875 754.640625 L 1220.390625 772.851562 L 1218.375 772.851562 C 1210.136719 772.851562 1203.460938 779.527344 1203.460938 787.769531 C 1203.460938 796.007812 1210.136719 802.6875 1218.375 802.6875 L 1240.003906 802.6875 L 1256.605469 827.945312 L 1241.601562 827.945312 C 1233.363281 827.945312 1226.683594 834.625 1226.683594 842.863281 C 1226.683594 851.101562 1233.363281 857.78125 1241.601562 857.78125 L 1276.21875 857.78125 L 1293.796875 884.523438 C 1290.523438 887.164062 1287.394531 889.886719 1284.445312 892.714844 C 1274.867188 890.773438 1265.464844 892.554688 1257.191406 898.058594 Z M 1183.054688 1387.140625 L 1299.441406 1087.46875 L 2059.621094 1214.550781 L 1943.226562 1514.820312 Z M 2065.238281 1957.1875 L 1304.847656 1830.070312 L 1304.847656 1437.851562 L 1947.433594 1545.78125 C 1950.691406 1546.328125 1953.757812 1546.796875 1957.015625 1545.828125 C 1961.378906 1544.527344 1965 1541.1875 1966.648438 1536.9375 L 2065.238281 1282.609375 Z M 2079.222656 1187.574219 L 1837.191406 1147.117188 L 1832.984375 1133.117188 C 1829.507812 1111.710938 1830.046875 1092.777344 1834.574219 1078.234375 C 1850.738281 1025.179688 1901.894531 1004.828125 1971.417969 1023.792969 C 1980.515625 1026.269531 1991.28125 1027.339844 2002.292969 1016.714844 C 2057.449219 970.800781 2112.136719 968.21875 2148.652344 1009.84375 C 2148.730469 1009.929688 2148.804688 1010.019531 2148.882812 1010.101562 C 2172.074219 1035.335938 2193.089844 1104.542969 2193.542969 1153.78125 Z M 2687.875 1779.59375 L 2095.070312 1954.839844 L 2095.070312 1289.863281 L 2182.207031 1536.515625 C 2184.808594 1543.890625 2193.023438 1548.070312 2200.511719 1545.847656 L 2687.875 1401.28125 Z M 2799.605469 1337.019531 L 2205.617188 1513.210938 L 2099.453125 1212.707031 L 2693.453125 1037.105469 Z M 2834.078125 794.359375 C 2819.191406 820.175781 2816.125 844.742188 2813.414062 866.433594 C 2809.003906 901.753906 2806.089844 925.085938 2756.082031 943.410156 C 2719.0625 956.835938 2703.6875 983.363281 2692.289062 1006.339844 L 2583.1875 1038.59375 C 2593.453125 1022.808594 2607.140625 1005.988281 2630.097656 988.8125 C 2678.929688 952.503906 2690.160156 914.984375 2688.367188 878.875 L 2737.539062 801.328125 L 2773.792969 794.949219 C 2781.90625 793.519531 2787.328125 785.785156 2785.898438 777.671875 C 2784.472656 769.554688 2776.734375 764.136719 2768.621094 765.566406 L 2759.160156 767.230469 L 2778.785156 736.28125 C 2783.195312 729.324219 2781.132812 720.105469 2774.175781 715.695312 C 2767.21875 711.28125 2758 713.34375 2753.589844 720.304688 L 2733.75 751.589844 L 2730.949219 741.742188 C 2728.699219 733.816406 2720.449219 729.214844 2712.523438 731.472656 C 2704.597656 733.726562 2700 741.976562 2702.253906 749.902344 L 2712.335938 785.363281 L 2681.109375 834.609375 C 2679.914062 829.691406 2678.660156 824.824219 2677.425781 820.011719 C 2670.765625 794.128906 2663.882812 767.363281 2667.371094 740.882812 C 2667.402344 740.640625 2667.425781 740.398438 2667.445312 740.15625 C 2669.042969 720.722656 2666.773438 703.132812 2661.507812 687.417969 C 2692.226562 647.757812 2745.273438 649.601562 2786.074219 670.042969 C 2827.785156 694.367188 2860.464844 743.507812 2834.078125 794.359375 Z M 2834.078125 794.359375 "/><path style=" stroke:none;fill-rule:nonzero;fill:#000000;fill-opacity:1;" d="M 2452.839844 1782.03125 C 2455.449219 1783.980469 2458.589844 1784.996094 2461.769531 1784.996094 C 2463.183594 1784.996094 2464.609375 1784.796875 2465.996094 1784.386719 L 2629.1875 1736.179688 C 2635.527344 1734.304688 2639.878906 1728.484375 2639.878906 1721.871094 L 2639.878906 1589.769531 C 2639.878906 1585.066406 2637.660156 1580.636719 2633.890625 1577.820312 C 2630.125 1575 2625.246094 1574.132812 2620.734375 1575.464844 L 2457.542969 1623.671875 C 2451.203125 1625.542969 2446.855469 1631.363281 2446.855469 1637.976562 L 2446.855469 1770.078125 C 2446.855469 1774.785156 2449.070312 1779.214844 2452.839844 1782.03125 Z M 2476.6875 1649.125 L 2610.046875 1609.730469 L 2610.046875 1710.726562 L 2476.6875 1750.117188 Z M 2476.6875 1649.125 "/><path style=" stroke:none;fill-rule:nonzero;fill:#000000;fill-opacity:1;" d="M 1495.109375 1712.789062 L 1374.601562 1692.753906 C 1366.476562 1691.402344 1358.789062 1696.894531 1357.4375 1705.027344 C 1356.089844 1713.152344 1361.582031 1720.835938 1369.707031 1722.1875 L 1490.21875 1742.222656 C 1491.046875 1742.359375 1491.867188 1742.425781 1492.683594 1742.425781 C 1499.84375 1742.425781 1506.167969 1737.25 1507.378906 1729.949219 C 1508.730469 1721.824219 1503.238281 1714.140625 1495.109375 1712.789062 Z M 1495.109375 1712.789062 "/><path style=" stroke:none;fill-rule:nonzero;fill:#000000;fill-opacity:1;" d="M 1495.109375 1772.265625 L 1374.601562 1752.230469 C 1366.476562 1750.875 1358.789062 1756.375 1357.4375 1764.503906 C 1356.089844 1772.628906 1361.582031 1780.3125 1369.707031 1781.664062 L 1490.21875 1801.699219 C 1491.046875 1801.835938 1491.867188 1801.902344 1492.683594 1801.902344 C 1499.84375 1801.902344 1506.167969 1796.726562 1507.378906 1789.429688 C 1508.730469 1781.300781 1503.238281 1773.617188 1495.109375 1772.265625 Z M 1495.109375 1772.265625 "/></g></svg>